<svg xmlns="http://www.w3.org/2000/svg"  viewBox="0 0 100 100" width="100px" height="100px"><path fill="#c7ede6" d="M87.215,56.71C88.35,54.555,89,52.105,89,49.5c0-6.621-4.159-12.257-10.001-14.478 C78.999,35.015,79,35.008,79,35c0-11.598-9.402-21-21-21c-9.784,0-17.981,6.701-20.313,15.757C36.211,29.272,34.638,29,33,29 c-7.692,0-14.023,5.793-14.89,13.252C12.906,43.353,9,47.969,9,53.5C9,59.851,14.149,65,20.5,65c0.177,0,0.352-0.012,0.526-0.022 C21.022,65.153,21,65.324,21,65.5C21,76.822,30.178,86,41.5,86c6.437,0,12.175-2.972,15.934-7.614C59.612,80.611,62.64,82,66,82 c4.65,0,8.674-2.65,10.666-6.518C77.718,75.817,78.837,76,80,76c6.075,0,11-4.925,11-11C91,61.689,89.53,58.727,87.215,56.71z"/><path fill="#fdfcef" d="M79.875,60.5c0,0,3.64,0,6.125,0s4.5-2.015,4.5-4.5c0-2.333-1.782-4.229-4.055-4.455 C86.467,51.364,86.5,51.187,86.5,51c0-2.485-2.015-4.5-4.5-4.5c-1.438,0-2.703,0.686-3.527,1.736 C78.333,45.6,76.171,43.5,73.5,43.5c-2.761,0-5,2.239-5,5c0,0.446,0.077,0.87,0.187,1.282C68.045,49.005,67.086,48.5,66,48.5 c-1.781,0-3.234,1.335-3.455,3.055C62.364,51.533,62.187,51.5,62,51.5c-2.485,0-4.5,2.015-4.5,4.5s2.015,4.5,4.5,4.5s9.5,0,9.5,0 h5.375V61h3V60.5z"/><path fill="#472b29" d="M73.5,43c-3.033,0-5.5,2.467-5.5,5.5c0,0.016,0,0.031,0,0.047C67.398,48.192,66.71,48,66,48 c-1.831,0-3.411,1.261-3.858,3.005C62.095,51.002,62.048,51,62,51c-2.757,0-5,2.243-5,5s2.243,5,5,5h14.875 c0.276,0,0.5-0.224,0.5-0.5s-0.224-0.5-0.5-0.5H62c-2.206,0-4-1.794-4-4s1.794-4,4-4c0.117,0,0.23,0.017,0.343,0.032l0.141,0.019 c0.021,0.003,0.041,0.004,0.062,0.004c0.246,0,0.462-0.185,0.495-0.437C63.232,50.125,64.504,49,66,49 c0.885,0,1.723,0.401,2.301,1.1c0.098,0.118,0.241,0.182,0.386,0.182c0.078,0,0.156-0.018,0.228-0.056 c0.209-0.107,0.314-0.346,0.254-0.573C69.054,49.218,69,48.852,69,48.5c0-2.481,2.019-4.5,4.5-4.5 c2.381,0,4.347,1.872,4.474,4.263c0.011,0.208,0.15,0.387,0.349,0.45c0.05,0.016,0.101,0.024,0.152,0.024 c0.15,0,0.296-0.069,0.392-0.192C79.638,47.563,80.779,47,82,47c2.206,0,4,1.794,4,4c0,0.117-0.017,0.23-0.032,0.343l-0.019,0.141 c-0.016,0.134,0.022,0.268,0.106,0.373s0.207,0.172,0.34,0.185C88.451,52.247,90,53.949,90,56c0,2.206-1.794,4-4,4h-6.125 c-0.276,0-0.5,0.224-0.5,0.5s0.224,0.5,0.5,0.5H86c2.757,0,5-2.243,5-5c0-2.397-1.689-4.413-4.003-4.877 C86.999,51.082,87,51.041,87,51c0-2.757-2.243-5-5-5c-1.176,0-2.293,0.416-3.183,1.164C78.219,44.76,76.055,43,73.5,43L73.5,43z"/><path fill="#472b29" d="M72,50c-1.403,0-2.609,0.999-2.913,2.341C68.72,52.119,68.301,52,67.875,52 c-1.202,0-2.198,0.897-2.353,2.068C65.319,54.022,65.126,54,64.938,54c-1.529,0-2.811,1.2-2.918,2.732 C62.01,56.87,62.114,56.99,62.251,57c0.006,0,0.012,0,0.018,0c0.13,0,0.24-0.101,0.249-0.232c0.089-1.271,1.151-2.268,2.419-2.268 c0.229,0,0.47,0.042,0.738,0.127c0.022,0.007,0.045,0.01,0.067,0.01c0.055,0,0.11-0.02,0.156-0.054 C65.962,54.537,66,54.455,66,54.375c0-1.034,0.841-1.875,1.875-1.875c0.447,0,0.885,0.168,1.231,0.473 c0.047,0.041,0.106,0.063,0.165,0.063c0.032,0,0.063-0.006,0.093-0.019c0.088-0.035,0.148-0.117,0.155-0.212 C69.623,51.512,70.712,50.5,72,50.5c0.208,0,0.425,0.034,0.682,0.107c0.023,0.007,0.047,0.01,0.07,0.01 c0.109,0,0.207-0.073,0.239-0.182c0.038-0.133-0.039-0.271-0.172-0.309C72.517,50.04,72.256,50,72,50L72,50z M85.883,51.5 c-1.326,0-2.508,0.897-2.874,2.182c-0.038,0.133,0.039,0.271,0.172,0.309C83.205,53.997,83.228,54,83.25,54 c0.109,0,0.209-0.072,0.24-0.182C83.795,52.748,84.779,52,85.883,52c0.117,0,0.23,0.014,0.342,0.029 c0.012,0.002,0.023,0.003,0.035,0.003c0.121,0,0.229-0.092,0.246-0.217c0.019-0.137-0.077-0.263-0.214-0.281 C86.158,51.516,86.022,51.5,85.883,51.5L85.883,51.5z"/><path fill="#605e60" d="M29.989,64.011V35.989c0-3.866,3.134-7,7-7h28.023c3.866,0,7,3.134,7,7v28.023c0,3.866-3.134,7-7,7 H36.989C33.123,71.011,29.989,67.877,29.989,64.011z"/><path fill="#472b29" d="M65,29.4c3.639,0,6.6,2.961,6.6,6.6v28c0,3.639-2.961,6.6-6.6,6.6H37c-3.639,0-6.6-2.961-6.6-6.6 V36c0-3.639,2.961-6.6,6.6-6.6H65 M65,28H37c-4.418,0-8,3.582-8,8v28c0,4.418,3.582,8,8,8h28c4.418,0,8-3.582,8-8V36 C73,31.582,69.418,28,65,28L65,28z"/><circle cx="51" cy="50" r="18.375" fill="#fff"/><path fill="#472b29" d="M51,68.75c-10.339,0-18.75-8.411-18.75-18.75S40.661,31.25,51,31.25S69.75,39.661,69.75,50 S61.339,68.75,51,68.75z M51,32c-9.925,0-18,8.075-18,18s8.075,18,18,18s18-8.075,18-18S60.925,32,51,32z"/><path fill="#472b29" d="M51,52c-1.103,0-2-0.897-2-2s0.897-2,2-2s2,0.897,2,2S52.103,52,51,52z"/><path fill="#472b29" d="M51,50.5c-0.058,0-0.116-0.01-0.173-0.031l-9.5-3.5c-0.259-0.096-0.392-0.383-0.296-0.642 s0.387-0.391,0.642-0.296l9.5,3.5c0.259,0.096,0.392,0.383,0.296,0.642C51.395,50.375,51.203,50.5,51,50.5z"/><path fill="#472b29" d="M36.5,56c-0.201,0-0.392-0.123-0.468-0.323c-0.098-0.258,0.032-0.547,0.29-0.645l14.5-5.5 c0.259-0.101,0.547,0.032,0.646,0.29c0.098,0.258-0.032,0.547-0.29,0.645l-14.5,5.5C36.619,55.99,36.559,56,36.5,56z"/><circle cx="51" cy="50" r="1" fill="#ff991f"/><path fill="#472b29" d="M51,37c-0.276,0-0.5-0.224-0.5-0.5v-2c0-0.276,0.224-0.5,0.5-0.5s0.5,0.224,0.5,0.5v2 C51.5,36.776,51.276,37,51,37z"/><path fill="#472b29" d="M44.25,38.808c-0.172,0-0.341-0.089-0.433-0.25l-1-1.732c-0.139-0.239-0.057-0.545,0.183-0.683 c0.238-0.139,0.545-0.057,0.683,0.183l1,1.732c0.139,0.239,0.057,0.545-0.183,0.683C44.421,38.787,44.335,38.808,44.25,38.808z"/><path fill="#472b29" d="M39.309,43.75c-0.085,0-0.171-0.021-0.25-0.067l-1.732-1c-0.239-0.138-0.321-0.444-0.183-0.683 c0.138-0.239,0.444-0.32,0.683-0.183l1.732,1c0.239,0.138,0.321,0.444,0.183,0.683C39.649,43.66,39.48,43.75,39.309,43.75z"/><path fill="#472b29" d="M37.5,50.5h-2c-0.276,0-0.5-0.224-0.5-0.5s0.224-0.5,0.5-0.5h2c0.276,0,0.5,0.224,0.5,0.5 S37.776,50.5,37.5,50.5z"/><path fill="#472b29" d="M37.576,58.25c-0.172,0-0.341-0.09-0.433-0.25c-0.139-0.239-0.057-0.545,0.183-0.683l1.732-1 c0.238-0.138,0.545-0.057,0.683,0.183c0.139,0.239,0.057,0.545-0.183,0.683l-1.732,1C37.747,58.229,37.661,58.25,37.576,58.25z"/><path fill="#472b29" d="M43.25,63.924c-0.085,0-0.171-0.021-0.25-0.067c-0.239-0.138-0.321-0.444-0.183-0.683l1-1.732 c0.138-0.24,0.443-0.319,0.683-0.183c0.239,0.138,0.321,0.444,0.183,0.683l-1,1.732C43.591,63.834,43.422,63.924,43.25,63.924z"/><path fill="#472b29" d="M51,66c-0.276,0-0.5-0.224-0.5-0.5v-2c0-0.276,0.224-0.5,0.5-0.5s0.5,0.224,0.5,0.5v2 C51.5,65.777,51.276,66,51,66z"/><path fill="#472b29" d="M58.75,63.924c-0.172,0-0.341-0.089-0.433-0.25l-1-1.732c-0.139-0.239-0.057-0.545,0.183-0.683 c0.237-0.138,0.545-0.058,0.683,0.183l1,1.732c0.139,0.239,0.057,0.545-0.183,0.683C58.921,63.902,58.835,63.924,58.75,63.924z"/><path fill="#472b29" d="M64.424,58.25c-0.085,0-0.171-0.021-0.25-0.067l-1.732-1c-0.239-0.138-0.321-0.444-0.183-0.683 c0.138-0.24,0.444-0.319,0.683-0.183l1.732,1c0.239,0.138,0.321,0.444,0.183,0.683C64.765,58.16,64.596,58.25,64.424,58.25z"/><path fill="#472b29" d="M66.5,50.5h-2c-0.276,0-0.5-0.224-0.5-0.5s0.224-0.5,0.5-0.5h2c0.276,0,0.5,0.224,0.5,0.5 S66.776,50.5,66.5,50.5z"/><path fill="#472b29" d="M62.691,43.75c-0.172,0-0.341-0.09-0.433-0.25c-0.139-0.239-0.057-0.545,0.183-0.683l1.732-1 c0.238-0.139,0.545-0.057,0.683,0.183c0.139,0.239,0.057,0.545-0.183,0.683l-1.732,1C62.862,43.729,62.776,43.75,62.691,43.75z"/><path fill="#472b29" d="M57.75,38.808c-0.085,0-0.171-0.021-0.25-0.067c-0.239-0.138-0.321-0.444-0.183-0.683l1-1.732 c0.138-0.24,0.444-0.32,0.683-0.183c0.239,0.138,0.321,0.444,0.183,0.683l-1,1.732C58.091,38.719,57.922,38.808,57.75,38.808z"/><path fill="#ff991f" d="M51,67c-0.138,0-0.25-0.112-0.25-0.25v-20.5c0-0.138,0.112-0.25,0.25-0.25s0.25,0.112,0.25,0.25 v20.5C51.25,66.888,51.138,67,51,67z"/><path fill="#fff" d="M15.405,51H5.5C5.224,51,5,50.776,5,50.5S5.224,50,5.5,50h9.905c0.276,0,0.5,0.224,0.5,0.5 S15.682,51,15.405,51z M18.5,51h-1c-0.276,0-0.5-0.224-0.5-0.5s0.224-0.5,0.5-0.5h1c0.276,0,0.5,0.224,0.5,0.5S18.777,51,18.5,51z M23.491,53H14.5c-0.276,0-0.5-0.224-0.5-0.5s0.224-0.5,0.5-0.5h8.991c0.276,0,0.5,0.224,0.5,0.5S23.767,53,23.491,53z M12.5,53h-1 c-0.276,0-0.5-0.224-0.5-0.5s0.224-0.5,0.5-0.5h1c0.276,0,0.5,0.224,0.5,0.5S12.777,53,12.5,53z M9.5,53h-2 C7.224,53,7,52.776,7,52.5S7.224,52,7.5,52h2c0.276,0,0.5,0.224,0.5,0.5S9.777,53,9.5,53z M15.5,55h-2c-0.276,0-0.5-0.224-0.5-0.5 s0.224-0.5,0.5-0.5h2c0.276,0,0.5,0.224,0.5,0.5S15.776,55,15.5,55z M18.5,46c-0.177,0-0.823,0-1,0c-0.276,0-0.5,0.224-0.5,0.5 s0.224,0.5,0.5,0.5c0.177,0,0.823,0,1,0c0.276,0,0.5-0.224,0.5-0.5S18.776,46,18.5,46z M18.5,48c-0.177,0-4.823,0-5,0 c-0.276,0-0.5,0.224-0.5,0.5s0.224,0.5,0.5,0.5c0.177,0,4.823,0,5,0c0.276,0,0.5-0.224,0.5-0.5S18.776,48,18.5,48z M23.5,50 c-0.177,0-2.823,0-3,0c-0.276,0-0.5,0.224-0.5,0.5s0.224,0.5,0.5,0.5c0.177,0,2.823,0,3,0c0.276,0,0.5-0.224,0.5-0.5 S23.776,50,23.5,50z"/><path fill="#fff" d="M72.5,24h-10c-0.276,0-0.5-0.224-0.5-0.5s0.224-0.5,0.5-0.5h10c0.276,0,0.5,0.224,0.5,0.5 S72.776,24,72.5,24z M76.5,24h-2c-0.276,0-0.5-0.224-0.5-0.5s0.224-0.5,0.5-0.5h2c0.276,0,0.5,0.224,0.5,0.5S76.776,24,76.5,24z M81.5,26h-10c-0.276,0-0.5-0.224-0.5-0.5s0.224-0.5,0.5-0.5h10c0.276,0,0.5,0.224,0.5,0.5S81.777,26,81.5,26z M69.5,26h-1 c-0.276,0-0.5-0.224-0.5-0.5s0.224-0.5,0.5-0.5h1c0.276,0,0.5,0.224,0.5,0.5S69.776,26,69.5,26z M66.375,26H64.5 c-0.276,0-0.5-0.224-0.5-0.5s0.224-0.5,0.5-0.5h1.875c0.276,0,0.5,0.224,0.5,0.5S66.651,26,66.375,26z M75.5,22h-5 c-0.276,0-0.5-0.224-0.5-0.5s0.224-0.5,0.5-0.5h5c0.276,0,0.5,0.224,0.5,0.5S75.777,22,75.5,22z M72.5,28h-2 c-0.276,0-0.5-0.224-0.5-0.5s0.224-0.5,0.5-0.5h2c0.276,0,0.5,0.224,0.5,0.5S72.776,28,72.5,28z"/><g><path fill="#fdfcef" d="M30.5,73.5c0,0,1.567,0,3.5,0s3.5-1.567,3.5-3.5c0-1.781-1.335-3.234-3.055-3.455 C34.473,66.366,34.5,66.187,34.5,66c0-1.933-1.567-3.5-3.5-3.5c-1.032,0-1.95,0.455-2.59,1.165 c-0.384-1.808-1.987-3.165-3.91-3.165c-2.209,0-4,1.791-4,4c0,0.191,0.03,0.374,0.056,0.558C20.128,64.714,19.592,64.5,19,64.5 c-1.228,0-2.245,0.887-2.455,2.055C16.366,66.527,16.187,66.5,16,66.5c-1.933,0-3.5,1.567-3.5,3.5s1.567,3.5,3.5,3.5s7.5,0,7.5,0 V74h7V73.5z"/><path fill="#472b29" d="M32.25,69C32.112,69,32,68.888,32,68.75c0-1.223,0.995-2.218,2.218-2.218 c0.034,0.009,0.737-0.001,1.244,0.136c0.133,0.036,0.212,0.173,0.176,0.306c-0.036,0.134-0.173,0.213-0.306,0.176 c-0.444-0.12-1.1-0.12-1.113-0.118c-0.948,0-1.719,0.771-1.719,1.718C32.5,68.888,32.388,69,32.25,69z M25.5,73 c-0.276,0-0.5,0.224-0.5,0.5s0.224,0.5,0.5,0.5s0.5-0.224,0.5-0.5S25.776,73,25.5,73z"/><path fill="#472b29" d="M34,74h-3.5c-0.276,0-0.5-0.224-0.5-0.5s0.224-0.5,0.5-0.5H34c1.654,0,3-1.346,3-3 c0-1.496-1.125-2.768-2.618-2.959c-0.134-0.018-0.255-0.088-0.336-0.196s-0.115-0.244-0.094-0.377C33.975,66.314,34,66.16,34,66 c0-1.654-1.346-3-3-3c-0.85,0-1.638,0.355-2.219,1c-0.125,0.139-0.321,0.198-0.5,0.148c-0.182-0.049-0.321-0.195-0.36-0.379 C27.58,62.165,26.141,61,24.5,61c-1.93,0-3.5,1.57-3.5,3.5c0,0.143,0.021,0.28,0.041,0.418c0.029,0.203-0.063,0.438-0.242,0.54 s-0.396,0.118-0.556-0.01C19.878,65.155,19.449,65,19,65c-0.966,0-1.792,0.691-1.963,1.644c-0.048,0.267-0.296,0.446-0.569,0.405 C16.314,67.025,16.16,67,16,67c-1.654,0-3,1.346-3,3s1.346,3,3,3h7.5c0.276,0,0.5,0.224,0.5,0.5S23.776,74,23.5,74H16 c-2.206,0-4-1.794-4-4s1.794-4,4-4c0.059,0,0.116,0.002,0.174,0.006C16.588,64.82,17.711,64,19,64c0.349,0,0.689,0.061,1.011,0.18 C20.176,61.847,22.126,60,24.5,60c1.831,0,3.466,1.127,4.153,2.774C29.333,62.276,30.155,62,31,62c2.206,0,4,1.794,4,4 c0,0.048-0.001,0.095-0.004,0.142C36.739,66.59,38,68.169,38,70C38,72.206,36.206,74,34,74z"/><path fill="#472b29" d="M28.5,73c-0.159,0-0.841,0-1,0c-0.276,0-0.5,0.224-0.5,0.5s0.224,0.5,0.5,0.5c0.159,0,0.841,0,1,0 c0.276,0,0.5-0.224,0.5-0.5S28.776,73,28.5,73z"/></g></svg>